<svg width="125" height="31" viewBox="0 0 125 31" fill="none" xmlns="http://www.w3.org/2000/svg">
<path d="M115.501 9.70861C115.533 9.13261 115.709 8.66861 116.029 8.31661C116.365 7.96461 116.837 7.86861 117.445 8.02861C117.733 8.10861 117.941 8.22861 118.069 8.38861C118.213 8.54861 118.309 8.74061 118.357 8.96461C118.421 9.17261 118.453 9.40461 118.453 9.66061C118.453 9.90061 118.453 10.1406 118.453 10.3806V13.6926C118.437 13.8206 118.429 13.9486 118.429 14.0766C118.445 14.1886 118.453 14.2926 118.453 14.3886V14.7006H119.053C119.229 14.7006 119.397 14.7006 119.557 14.7006C119.733 14.7006 119.885 14.6926 120.013 14.6766C120.893 14.6766 121.645 14.8046 122.269 15.0606C122.909 15.3166 123.421 15.6766 123.805 16.1406C124.205 16.5886 124.493 17.1326 124.669 17.7726C124.861 18.3966 124.949 19.0846 124.933 19.8366C124.917 20.7326 124.773 21.5006 124.501 22.1406C124.229 22.7806 123.845 23.3086 123.349 23.7246C122.853 24.1406 122.253 24.4526 121.549 24.6606C120.861 24.8526 120.085 24.9486 119.221 24.9486C118.229 24.9486 117.477 24.9406 116.965 24.9246C116.453 24.9086 116.085 24.7646 115.861 24.4926C115.653 24.2206 115.541 23.7486 115.525 23.0766C115.509 22.4046 115.501 21.4206 115.501 20.1246C115.501 18.8766 115.501 17.6446 115.501 16.4286C115.517 15.2126 115.517 13.9886 115.501 12.7566C115.501 12.5966 115.493 12.4286 115.477 12.2526C115.477 12.0766 115.477 11.8766 115.477 11.6526C115.477 11.4286 115.477 11.1646 115.477 10.8606C115.477 10.5406 115.485 10.1566 115.501 9.70861ZM119.989 22.2606C120.869 22.2126 121.477 21.9726 121.813 21.5406C121.989 21.3006 122.125 21.0126 122.221 20.6766C122.317 20.3406 122.357 20.0046 122.341 19.6686C122.325 19.3326 122.253 19.0126 122.125 18.7086C122.013 18.3886 121.829 18.1246 121.573 17.9166C121.349 17.7246 121.125 17.5886 120.901 17.5086C120.677 17.4126 120.445 17.3566 120.205 17.3406C119.965 17.3086 119.709 17.3006 119.437 17.3166C119.165 17.3166 118.853 17.3246 118.501 17.3406V20.2206L118.453 22.2126C118.613 22.2286 118.781 22.2446 118.957 22.2606C119.261 22.2926 119.605 22.2926 119.989 22.2606Z" fill="white"/>
<path d="M113.481 19.1646C113.449 19.6926 113.417 20.2286 113.385 20.7726C113.353 21.3006 113.265 21.8126 113.121 22.3086C112.993 22.8046 112.785 23.2526 112.497 23.6526C112.225 24.0526 111.833 24.3726 111.321 24.6126C110.873 24.8366 110.393 24.9886 109.881 25.0686C109.369 25.1646 108.857 25.2046 108.345 25.1886C107.833 25.1726 107.337 25.0926 106.857 24.9486C106.377 24.8206 105.945 24.6366 105.561 24.3966C105.177 24.1566 104.865 23.8446 104.625 23.4606C104.385 23.0766 104.193 22.6606 104.049 22.2126C103.921 21.7646 103.833 21.3006 103.785 20.8206C103.737 20.3406 103.705 19.8926 103.689 19.4766C103.625 18.3726 103.625 17.2846 103.689 16.2126C103.689 16.0046 103.689 15.7726 103.689 15.5166C103.689 15.2446 103.705 14.9806 103.737 14.7246C103.785 14.4686 103.857 14.2366 103.953 14.0286C104.049 13.8046 104.209 13.6366 104.433 13.5246C104.913 13.2686 105.353 13.2526 105.753 13.4766C106.169 13.7006 106.417 14.1646 106.497 14.8686C106.545 15.2366 106.561 15.6446 106.545 16.0926C106.545 16.5406 106.561 16.9486 106.593 17.3166C106.609 17.8606 106.625 18.4526 106.641 19.0926C106.657 19.7166 106.745 20.2766 106.905 20.7726C107.081 21.2686 107.361 21.6446 107.745 21.9006C108.145 22.1406 108.737 22.1486 109.521 21.9246C109.889 21.8126 110.129 21.5326 110.241 21.0846C110.369 20.6366 110.433 19.9726 110.433 19.0926C110.433 18.7086 110.425 18.2846 110.409 17.8206C110.393 17.3566 110.385 16.9006 110.385 16.4526C110.385 15.9886 110.393 15.5646 110.409 15.1806C110.441 14.7806 110.489 14.4766 110.553 14.2686C110.633 13.9806 110.801 13.7646 111.057 13.6206C111.313 13.4766 111.585 13.4046 111.873 13.4046C112.161 13.3886 112.433 13.4446 112.689 13.5726C112.945 13.7006 113.121 13.9086 113.217 14.1966C113.313 14.4526 113.377 14.7806 113.409 15.1806C113.457 15.5646 113.489 15.9886 113.505 16.4526C113.521 16.9006 113.521 17.3646 113.505 17.8446C113.505 18.3086 113.497 18.7486 113.481 19.1646Z" fill="white"/>
<path d="M101.653 22.9565C101.637 23.0365 101.621 23.1165 101.605 23.1965C101.605 23.2605 101.605 23.3325 101.605 23.4125L101.461 23.9165C101.429 23.9805 101.405 24.0205 101.389 24.0365L101.317 24.1805C101.237 24.3565 101.093 24.5005 100.885 24.6125C100.501 24.8045 100.093 24.8525 99.6609 24.7565C99.3889 24.7245 99.1729 24.6445 99.0129 24.5165C98.8529 24.4045 98.7409 24.2685 98.6769 24.1085C98.6129 23.9485 98.5649 23.7885 98.5329 23.6285C98.4849 23.4685 98.4609 23.3245 98.4609 23.1965V9.75654C98.4609 9.64454 98.4609 9.54854 98.4609 9.46854C98.4769 9.37254 98.4929 9.28454 98.5089 9.20454C98.5249 9.09254 98.5409 8.99654 98.5569 8.91654C98.5889 8.83654 98.6209 8.74854 98.6529 8.65254C98.7009 8.49254 98.7889 8.36454 98.9169 8.26854C99.1089 8.12454 99.2929 8.04454 99.4689 8.02854C99.5809 7.99654 99.6849 7.98054 99.7809 7.98054C99.8769 7.96454 99.9889 7.95654 100.117 7.95654C100.341 7.95654 100.597 8.02054 100.885 8.14854C101.109 8.27654 101.269 8.45254 101.365 8.67654C101.525 8.99654 101.605 9.29254 101.605 9.56454C101.621 9.72454 101.629 9.96454 101.629 10.2845C101.645 10.6045 101.653 10.8445 101.653 11.0045V11.1005C101.685 11.6125 101.701 12.1085 101.701 12.5885C101.701 13.0525 101.693 13.5645 101.677 14.1245C101.677 14.6685 101.669 15.1965 101.653 15.7085C101.653 16.2045 101.653 16.7005 101.653 17.1965V22.2365C101.653 22.3005 101.653 22.3645 101.653 22.4285C101.669 22.4765 101.677 22.5325 101.677 22.5965C101.677 22.7565 101.669 22.8765 101.653 22.9565Z" fill="white"/>
<path d="M96.3689 20.8446C96.5769 21.3086 96.5849 21.7646 96.3929 22.2126C96.2009 22.6446 95.8969 23.0446 95.4809 23.4126C95.0649 23.7806 94.5849 24.1006 94.0409 24.3726C93.5129 24.6446 93.0089 24.8366 92.5289 24.9486C92.0009 25.0606 91.4409 25.1086 90.8489 25.0926C90.2729 25.0926 89.6889 25.0206 89.0969 24.8766C88.5209 24.7486 87.9529 24.5566 87.3929 24.3006C86.8489 24.0286 86.3449 23.7006 85.8809 23.3166C85.3209 22.8526 84.8809 22.3006 84.5609 21.6606C84.2569 21.0046 84.0329 20.3086 83.8889 19.5726C83.7449 18.8366 83.6649 18.1006 83.6489 17.3646C83.6489 16.6126 83.6729 15.9086 83.7209 15.2526C83.7689 14.6606 83.8889 14.0446 84.0809 13.4046C84.2729 12.7646 84.5369 12.1406 84.8729 11.5326C85.2249 10.9086 85.6409 10.3326 86.1209 9.80462C86.6169 9.27662 87.1929 8.82862 87.8489 8.46062C88.3449 8.17262 88.8969 7.98062 89.5049 7.88462C90.1289 7.77262 90.7529 7.74862 91.3769 7.81262C92.0169 7.86062 92.6169 7.99662 93.1769 8.22062C93.7529 8.42862 94.2409 8.71662 94.6409 9.08462C94.8969 9.30862 95.1609 9.62062 95.4329 10.0206C95.7209 10.4206 95.9289 10.8286 96.0569 11.2446C96.1849 11.6606 96.1849 12.0526 96.0569 12.4206C95.9449 12.7726 95.6249 13.0126 95.0969 13.1406C94.8729 13.2046 94.6729 13.2206 94.4969 13.1886C94.3209 13.1406 94.1609 13.0686 94.0169 12.9726C93.8729 12.8606 93.7369 12.7326 93.6089 12.5886C93.4809 12.4446 93.3609 12.3006 93.2489 12.1566C92.8649 11.6926 92.4169 11.3806 91.9049 11.2206C91.3929 11.0446 90.8809 11.0046 90.3689 11.1006C89.8729 11.1806 89.4009 11.3886 88.9529 11.7246C88.5209 12.0446 88.1849 12.4606 87.9449 12.9726C87.6889 13.5166 87.4809 14.1166 87.3209 14.7726C87.1769 15.4126 87.0969 16.0686 87.0809 16.7406C87.0649 17.3966 87.1209 18.0366 87.2489 18.6606C87.3929 19.2846 87.6329 19.8366 87.9689 20.3166C88.2249 20.7006 88.5369 21.0126 88.9049 21.2526C89.2889 21.4926 89.6969 21.6606 90.1289 21.7566C90.5609 21.8526 90.9929 21.8686 91.4249 21.8046C91.8729 21.7406 92.3049 21.5966 92.7209 21.3726C92.8489 21.3086 92.9849 21.2206 93.1289 21.1086C93.2889 20.9806 93.4489 20.8526 93.6089 20.7246C93.7689 20.5966 93.9289 20.4766 94.0889 20.3646C94.2649 20.2526 94.4489 20.1726 94.6409 20.1246C94.9289 20.0286 95.2409 20.0366 95.5769 20.1486C95.9289 20.2606 96.1929 20.4926 96.3689 20.8446Z" fill="white"/>
<path d="M81.7723 24.8766C81.7723 25.2926 81.6203 25.6446 81.3163 25.9326C81.0283 26.2366 80.6763 26.3886 80.2603 26.3886C79.8443 26.3886 79.4843 26.2366 79.1803 25.9326C78.8923 25.6446 78.7483 25.2926 78.7483 24.8766C78.7483 24.4606 78.8923 24.1006 79.1803 23.7966C79.4843 23.4926 79.8443 23.3406 80.2603 23.3406C80.6763 23.3406 81.0283 23.4926 81.3163 23.7966C81.6203 24.1006 81.7723 24.4606 81.7723 24.8766Z" fill="white"/>
<path d="M76.884 23.8205C76.9 23.9805 76.884 24.1325 76.836 24.2765C76.804 24.3725 76.756 24.4525 76.692 24.5165C76.644 24.5805 76.58 24.6445 76.5 24.7085C76.356 24.8045 76.18 24.8925 75.972 24.9725C75.844 25.0045 75.716 25.0285 75.588 25.0445C75.476 25.0765 75.356 25.0765 75.228 25.0445C74.972 25.0285 74.748 24.9325 74.556 24.7565C74.284 24.5325 74.06 24.2845 73.884 24.0125C73.804 23.8845 73.716 23.7405 73.62 23.5805C73.524 23.4205 73.436 23.2525 73.356 23.0765L70.692 18.0125C70.564 18.0125 70.436 18.0205 70.308 18.0365C70.18 18.0365 70.052 18.0445 69.924 18.0605C69.588 18.0925 69.268 18.1005 68.964 18.0845C68.676 18.0685 68.372 18.0685 68.052 18.0845H67.596V22.4285C67.596 22.5565 67.588 22.6765 67.572 22.7885C67.572 22.9005 67.572 23.0205 67.572 23.1485C67.572 23.2285 67.564 23.3325 67.548 23.4605C67.548 23.5885 67.54 23.7085 67.524 23.8205C67.492 23.9965 67.42 24.1805 67.308 24.3725C67.196 24.5485 67.044 24.7005 66.852 24.8285C66.516 25.0365 66.108 25.0925 65.628 24.9965C65.42 24.9485 65.22 24.8685 65.028 24.7565C64.964 24.7085 64.908 24.6525 64.86 24.5885C64.812 24.5085 64.772 24.4285 64.74 24.3485C64.708 24.2685 64.676 24.1885 64.644 24.1085C64.628 24.0125 64.604 23.9245 64.572 23.8445C64.524 23.6845 64.5 23.5325 64.5 23.3885V9.75654C64.5 9.66054 64.5 9.56454 64.5 9.46854C64.516 9.35654 64.532 9.26054 64.548 9.18054C64.564 9.00454 64.62 8.82854 64.716 8.65254C64.764 8.46054 64.844 8.32454 64.956 8.24454C65.052 8.14854 65.196 8.06854 65.388 8.00454C65.596 7.92454 65.892 7.89254 66.276 7.90854C66.996 7.92454 67.708 7.93254 68.412 7.93254C69.116 7.93254 69.82 7.94854 70.524 7.98054C70.988 8.01254 71.476 8.06854 71.988 8.14854C72.516 8.21254 73.004 8.33254 73.452 8.50854C73.74 8.62054 74.004 8.73254 74.244 8.84454C74.548 9.02054 74.788 9.18854 74.964 9.34854C75.524 9.86054 75.948 10.4765 76.236 11.1965C76.524 11.9165 76.668 12.6445 76.668 13.3805C76.668 14.2445 76.46 15.0365 76.044 15.7565C75.644 16.4765 74.996 17.0125 74.1 17.3645C74.068 17.3965 74.02 17.4205 73.956 17.4365C73.908 17.4365 73.868 17.4445 73.836 17.4605L76.044 21.9005L76.26 22.2845C76.292 22.3485 76.332 22.4205 76.38 22.5005C76.428 22.5805 76.468 22.6605 76.5 22.7405C76.548 22.8205 76.588 22.9085 76.62 23.0045C76.668 23.1005 76.716 23.1885 76.764 23.2685C76.812 23.4925 76.852 23.6765 76.884 23.8205ZM70.884 15.2765C71.172 15.2765 71.444 15.2285 71.7 15.1325C71.972 15.0205 72.212 14.8765 72.42 14.7005C72.644 14.5245 72.828 14.3245 72.972 14.1005C73.116 13.8605 73.196 13.6045 73.212 13.3325C73.276 12.5325 73.068 11.9405 72.588 11.5565C72.108 11.1565 71.476 10.9405 70.692 10.9085C70.228 10.8765 69.716 10.8605 69.156 10.8605C68.612 10.8605 68.092 10.8605 67.596 10.8605C67.612 11.5165 67.612 12.1885 67.596 12.8765C67.596 13.5485 67.596 14.3485 67.596 15.2765H70.884Z" fill="white"/>
<path d="M62.4668 14.2925C62.5948 14.5965 62.6028 14.9325 62.4908 15.3005C62.3948 15.6685 62.2108 15.9085 61.9388 16.0205C61.7948 16.0845 61.6028 16.1405 61.3628 16.1885C61.1228 16.2205 60.8588 16.2525 60.5708 16.2845C60.2988 16.3165 60.0268 16.3405 59.7548 16.3565C59.4828 16.3725 59.2508 16.3805 59.0588 16.3805C59.0748 16.8605 59.0908 17.3565 59.1068 17.8685C59.1228 18.3645 59.1388 18.8525 59.1548 19.3325C59.1708 19.8125 59.1788 20.2765 59.1788 20.7245C59.1788 21.1565 59.1708 21.5485 59.1548 21.9005C59.1548 22.1405 59.1548 22.4205 59.1548 22.7405C59.1548 23.0445 59.1308 23.3405 59.0828 23.6285C59.0508 23.9165 58.9948 24.1725 58.9148 24.3965C58.8348 24.6045 58.7148 24.7405 58.5548 24.8045C58.0588 25.0125 57.6028 25.0685 57.1868 24.9725C56.7868 24.8925 56.4988 24.7245 56.3228 24.4685C56.1948 24.2605 56.0988 24.0205 56.0348 23.7485C55.9708 23.4605 55.9228 23.1725 55.8908 22.8845C55.8748 22.5805 55.8668 22.2925 55.8668 22.0205C55.8828 21.7325 55.8908 21.4845 55.8908 21.2765C55.9068 20.6045 55.9148 19.8445 55.9148 18.9965C55.9308 18.1325 55.9388 17.2685 55.9388 16.4045H55.5788C55.3868 16.4045 55.1388 16.4045 54.8348 16.4045C54.5468 16.3885 54.2508 16.3645 53.9468 16.3325C53.6588 16.2845 53.3868 16.2285 53.1308 16.1645C52.8748 16.0845 52.6908 15.9725 52.5788 15.8285C52.4028 15.6205 52.2908 15.3965 52.2428 15.1565C52.2108 14.9165 52.2268 14.6925 52.2908 14.4845C52.3708 14.2605 52.4908 14.0685 52.6508 13.9085C52.8108 13.7325 52.9948 13.6205 53.2028 13.5725C53.4908 13.4925 53.8988 13.4525 54.4268 13.4525C54.9548 13.4365 55.4508 13.4365 55.9148 13.4525C55.8988 13.2925 55.8908 13.1405 55.8908 12.9965C55.8908 12.8365 55.8828 12.6845 55.8668 12.5405C55.8508 12.3485 55.8428 12.1085 55.8428 11.8205C55.8428 11.5165 55.8588 11.2205 55.8908 10.9325C55.9388 10.6285 56.0108 10.3485 56.1068 10.0925C56.2028 9.82053 56.3388 9.61253 56.5148 9.46853C56.7548 9.27653 56.9948 9.17253 57.2348 9.15653C57.4908 9.12453 57.7228 9.15653 57.9308 9.25253C58.1548 9.34853 58.3388 9.49253 58.4828 9.68453C58.6428 9.86053 58.7548 10.0605 58.8188 10.2845C58.8668 10.4765 58.9068 10.7085 58.9388 10.9805C58.9708 11.2365 58.9868 11.5085 58.9868 11.7965C59.0028 12.0845 59.0108 12.3725 59.0108 12.6605C59.0108 12.9485 59.0108 13.2125 59.0108 13.4525H59.2508C59.4908 13.4525 59.7708 13.4445 60.0908 13.4285C60.4108 13.4125 60.7228 13.4205 61.0268 13.4525C61.3468 13.4845 61.6348 13.5645 61.8908 13.6925C62.1468 13.8045 62.3388 14.0045 62.4668 14.2925Z" fill="white"/>
<path d="M51.4772 20.1486C51.4932 20.4686 51.5012 20.8046 51.5012 21.1566C51.5012 21.4926 51.4932 21.8046 51.4772 22.0926C51.4612 22.5246 51.4372 22.9246 51.4052 23.2926C51.3732 23.6446 51.3092 23.9486 51.2132 24.2046C51.1172 24.4446 50.9652 24.6286 50.7572 24.7566C50.5652 24.8686 50.2932 24.9006 49.9412 24.8526C49.5732 24.8046 49.3092 24.6286 49.1492 24.3246C48.9892 24.0206 48.8772 23.6766 48.8132 23.2926C48.7652 22.8926 48.7492 22.4926 48.7652 22.0926C48.7812 21.6926 48.7812 21.3806 48.7652 21.1566C48.7492 20.8046 48.7332 20.4046 48.7172 19.9566C48.7172 19.4926 48.6692 19.0606 48.5732 18.6606C48.4932 18.2446 48.3492 17.8926 48.1412 17.6046C47.9332 17.3166 47.6212 17.1646 47.2052 17.1486C46.6772 17.1166 46.2692 17.1566 45.9812 17.2686C45.7092 17.3806 45.5092 17.5486 45.3812 17.7726C45.2532 17.9806 45.1732 18.2366 45.1412 18.5406C45.1252 18.8446 45.0932 19.1726 45.0452 19.5246L45.0212 20.4606V22.2126C45.0212 22.5006 45.0132 22.8046 44.9972 23.1246C44.9972 23.4286 44.9492 23.7086 44.8532 23.9646C44.7572 24.2206 44.6052 24.4366 44.3972 24.6126C44.2052 24.7886 43.9172 24.8766 43.5332 24.8766C43.0532 24.8766 42.6932 24.7246 42.4532 24.4206C42.2292 24.1006 42.1172 23.7086 42.1172 23.2446V9.44458C42.1172 9.34858 42.1172 9.26058 42.1172 9.18058C42.1332 9.08458 42.1492 8.98858 42.1652 8.89258C42.1972 8.79658 42.2212 8.70858 42.2372 8.62858C42.2532 8.53258 42.2772 8.44458 42.3092 8.36458C42.3572 8.20458 42.4372 8.08458 42.5492 8.00458C42.6292 7.92458 42.7092 7.86058 42.7892 7.81258C42.8692 7.76458 42.9572 7.73258 43.0532 7.71658C43.1332 7.70058 43.2212 7.69258 43.3172 7.69258C43.4132 7.67658 43.5092 7.66858 43.6052 7.66858C43.8452 7.66858 44.0772 7.74058 44.3012 7.88458C44.3972 7.94858 44.4852 8.02058 44.5652 8.10058C44.6452 8.16458 44.7092 8.26058 44.7572 8.38858C44.8852 8.69258 44.9492 8.98058 44.9492 9.25258C44.9652 9.33258 44.9732 9.45258 44.9732 9.61258C44.9892 9.75658 44.9972 9.90858 44.9972 10.0686C44.9972 10.2286 44.9972 10.3886 44.9972 10.5486C45.0132 10.6926 45.0212 10.8046 45.0212 10.8846V11.0046C45.0372 11.5166 45.0452 12.0366 45.0452 12.5646C45.0452 13.0926 45.0452 13.6286 45.0452 14.1726V14.5806C45.7172 14.3566 46.4212 14.2526 47.1572 14.2686C47.8932 14.2686 48.5492 14.4126 49.1252 14.7006C49.7172 15.0046 50.1652 15.3486 50.4692 15.7326C50.7892 16.1166 51.0212 16.5406 51.1652 17.0046C51.3092 17.4686 51.3892 17.9646 51.4052 18.4926C51.4372 19.0206 51.4612 19.5726 51.4772 20.1486Z" fill="white"/>
<path d="M40.171 20.3406C40.171 20.8526 40.155 21.4046 40.123 21.9966C40.107 22.5886 40.083 23.1406 40.051 23.6526C40.051 24.1326 40.027 24.6126 39.979 25.0926C39.947 25.5086 39.883 25.9566 39.787 26.4366C39.691 26.9326 39.555 27.3886 39.379 27.8046C39.155 28.3486 38.851 28.8126 38.467 29.1966C38.083 29.5966 37.587 29.8846 36.979 30.0606C36.467 30.1886 35.987 30.2686 35.539 30.3006C35.091 30.3486 34.611 30.3406 34.099 30.2766C33.763 30.2286 33.403 30.1326 33.019 29.9886C32.635 29.8606 32.275 29.6926 31.939 29.4846C31.603 29.2766 31.307 29.0286 31.051 28.7406C30.795 28.4686 30.619 28.1566 30.523 27.8046C30.411 27.3726 30.403 26.9966 30.499 26.6766C30.611 26.3566 30.779 26.1246 31.003 25.9806C31.227 25.8366 31.491 25.8126 31.795 25.9086C32.099 26.0046 32.387 26.2526 32.659 26.6526C32.851 26.9406 33.131 27.1726 33.499 27.3486C33.867 27.5246 34.259 27.6286 34.675 27.6606C35.091 27.6926 35.491 27.6366 35.875 27.4926C36.275 27.3646 36.587 27.1326 36.811 26.7966C36.971 26.5566 37.083 26.2126 37.147 25.7646C37.227 25.3166 37.275 24.8766 37.291 24.4446C36.475 24.7806 35.635 24.9086 34.771 24.8286C33.923 24.7326 33.147 24.4686 32.443 24.0366C31.755 23.5886 31.195 22.9966 30.763 22.2606C30.347 21.5086 30.171 20.6606 30.235 19.7166C30.283 18.9006 30.451 18.1326 30.739 17.4126C31.043 16.6926 31.539 16.0926 32.227 15.6126C32.787 15.2286 33.419 14.9806 34.123 14.8686C34.827 14.7406 35.507 14.6766 36.163 14.6766C36.547 14.6766 36.923 14.6766 37.291 14.6766C37.675 14.6766 38.027 14.7246 38.347 14.8206C38.667 14.9166 38.955 15.0766 39.211 15.3006C39.467 15.5246 39.659 15.8526 39.787 16.2846C39.995 16.9566 40.107 17.6206 40.123 18.2766C40.155 18.9326 40.171 19.6206 40.171 20.3406ZM35.539 22.3326C35.699 22.3326 35.851 22.3166 35.995 22.2846C36.155 22.2526 36.307 22.2126 36.451 22.1646C36.723 22.0686 36.923 21.9406 37.051 21.7806C37.195 21.6206 37.291 21.4446 37.339 21.2526C37.387 21.0446 37.403 20.8206 37.387 20.5806C37.387 20.3406 37.387 20.0926 37.387 19.8366C37.387 19.6286 37.379 19.3966 37.363 19.1406C37.363 18.8846 37.347 18.6446 37.315 18.4206C37.283 18.1806 37.235 17.9726 37.171 17.7966C37.107 17.6206 37.011 17.5086 36.883 17.4606C36.659 17.3966 36.403 17.3566 36.115 17.3406C35.827 17.3086 35.539 17.3086 35.251 17.3406C34.963 17.3566 34.683 17.4126 34.411 17.5086C34.155 17.5886 33.939 17.7006 33.763 17.8446C33.523 18.0526 33.339 18.3086 33.211 18.6126C33.083 18.9166 33.003 19.2366 32.971 19.5726C32.955 19.9086 32.979 20.2366 33.043 20.5566C33.123 20.8766 33.259 21.1646 33.451 21.4206C33.675 21.7406 33.979 21.9726 34.363 22.1166C34.747 22.2606 35.139 22.3326 35.539 22.3326Z" fill="white"/>
<path d="M28.1021 15.7806C28.1021 16.2286 28.1021 16.7326 28.1021 17.2926C28.1181 17.8526 28.1261 18.4366 28.1261 19.0446C28.1261 19.6366 28.1261 20.2286 28.1261 20.8206C28.1261 21.3966 28.1181 21.9326 28.1021 22.4286C28.0861 22.6686 28.0621 22.9326 28.0301 23.2206C27.9981 23.4926 27.9341 23.7486 27.8381 23.9886C27.7421 24.2286 27.5901 24.4286 27.3821 24.5886C27.1901 24.7326 26.9261 24.7966 26.5901 24.7806C26.0941 24.7486 25.7341 24.5326 25.5101 24.1326C25.3021 23.7326 25.1821 23.1726 25.1501 22.4526C25.1501 22.0846 25.1421 21.6606 25.1261 21.1806C25.1261 20.7006 25.1181 20.2126 25.1021 19.7166C25.1021 19.2206 25.1021 18.7406 25.1021 18.2766C25.1021 17.7966 25.1021 17.3646 25.1021 16.9806C25.1021 16.7566 25.0941 16.4846 25.0781 16.1646C25.0781 15.8446 25.0861 15.5166 25.1021 15.1806C25.1181 14.8446 25.1581 14.5246 25.2221 14.2206C25.2861 13.9006 25.3901 13.6366 25.5341 13.4286C25.6461 13.3006 25.8061 13.2046 26.0141 13.1406C26.2221 13.0606 26.4381 13.0206 26.6621 13.0206C26.9021 13.0206 27.1261 13.0606 27.3341 13.1406C27.5581 13.2206 27.7181 13.3326 27.8141 13.4766C27.8781 13.5726 27.9261 13.7086 27.9581 13.8846C27.9901 14.0606 28.0141 14.2606 28.0301 14.4846C28.0621 14.6926 28.0781 14.9166 28.0781 15.1566C28.0941 15.3806 28.1021 15.5886 28.1021 15.7806Z" fill="white"/>
<path d="M26.9921 0.938584C26.9921 1.09093 26.9921 1.26233 26.9921 1.45277C26.9974 1.6432 27 1.8418 27 2.04856C27 2.24988 27 2.4512 27 2.65252C27 2.8484 26.9974 3.03067 26.9921 3.19935C26.9869 3.28096 26.979 3.37074 26.9685 3.46868C26.958 3.56118 26.937 3.64824 26.9055 3.72985C26.874 3.81147 26.8241 3.87948 26.7559 3.93389C26.6929 3.98286 26.6063 4.00463 26.4961 3.99918C26.3333 3.9883 26.2152 3.91485 26.1417 3.77882C26.0735 3.64279 26.0341 3.45236 26.0236 3.20751C26.0236 3.08236 26.021 2.93818 26.0157 2.77494C26.0157 2.61171 26.0131 2.44576 26.0079 2.27709C26.0079 2.10841 26.0079 1.94518 26.0079 1.78739C26.0079 1.62416 26.0079 1.47725 26.0079 1.34666C26.0079 1.27049 26.0052 1.17799 26 1.06917C26 0.960349 26.0026 0.848807 26.0079 0.734544C26.0131 0.620282 26.0262 0.51146 26.0472 0.40808C26.0682 0.299259 26.1024 0.209481 26.1496 0.138747C26.1864 0.0952187 26.2388 0.0625726 26.3071 0.0408083C26.3753 0.013603 26.4462 0 26.5197 0C26.5984 0 26.6719 0.013603 26.7402 0.0408083C26.8136 0.0680136 26.8661 0.106101 26.8976 0.155071C26.9186 0.187717 26.9344 0.233966 26.9449 0.293818C26.9554 0.353669 26.9633 0.421683 26.9685 0.497858C26.979 0.568592 26.9843 0.644766 26.9843 0.726382C26.9895 0.802557 26.9921 0.873291 26.9921 0.938584Z" fill="#FFA02F"/>
<path d="M32.2888 2.28969C32.2187 2.42497 32.1399 2.57717 32.0523 2.74628C31.9694 2.9178 31.8804 3.09536 31.7853 3.27897C31.6927 3.45774 31.6002 3.63651 31.5076 3.81528C31.4175 3.98922 31.3314 4.14987 31.2491 4.29724C31.2069 4.3673 31.1587 4.4434 31.1043 4.52554C31.0525 4.60285 30.9938 4.6705 30.9283 4.7285C30.8628 4.78649 30.7872 4.82395 30.7016 4.84089C30.6231 4.8554 30.5362 4.8349 30.4408 4.77938C30.3013 4.69488 30.2302 4.57534 30.2275 4.42076C30.2295 4.26858 30.2821 4.08137 30.3854 3.85912C30.4429 3.74799 30.5069 3.61875 30.5773 3.47138C30.6523 3.32643 30.7263 3.17786 30.7992 3.02567C30.8768 2.87589 30.9519 2.73094 31.0244 2.59082C31.0995 2.44587 31.167 2.31541 31.2271 2.19945C31.2621 2.13181 31.3023 2.04847 31.3477 1.94942C31.3977 1.85279 31.4514 1.75494 31.5086 1.65589C31.5658 1.55684 31.6275 1.46624 31.6937 1.3841C31.7623 1.29712 31.8339 1.23309 31.9084 1.192C31.961 1.17025 32.0227 1.1654 32.0933 1.17745C32.1664 1.18467 32.2356 1.20518 32.3008 1.23898C32.3708 1.27519 32.4298 1.32106 32.4778 1.3766C32.5306 1.43455 32.5597 1.49251 32.5651 1.55048C32.5688 1.58913 32.5615 1.63744 32.5433 1.69541C32.5251 1.75339 32.5008 1.81741 32.4704 1.88746C32.4472 1.9551 32.4169 2.02516 32.3793 2.09763C32.349 2.16769 32.3188 2.23171 32.2888 2.28969Z" fill="#FFA02F"/>
<path d="M34.1574 8.09637C34.0061 8.11442 33.8359 8.13473 33.6469 8.1573C33.4584 8.18508 33.2615 8.21122 33.0562 8.23573C32.8563 8.25959 32.6564 8.28344 32.4565 8.3073C32.262 8.33052 32.0807 8.34951 31.9126 8.36429C31.8309 8.36875 31.7408 8.37157 31.6423 8.37275C31.5493 8.37329 31.4603 8.36276 31.3755 8.34115C31.2908 8.31955 31.2173 8.27809 31.1552 8.21678C31.0991 8.16004 31.0672 8.07661 31.0596 7.96651C31.0511 7.80364 31.11 7.67765 31.2364 7.58856C31.3634 7.50468 31.5478 7.44302 31.7897 7.40358C31.914 7.38874 32.0568 7.36905 32.2183 7.34449C32.3804 7.32515 32.5448 7.30288 32.7117 7.27767C32.8792 7.25769 33.0413 7.23834 33.1979 7.21964C33.36 7.2003 33.5059 7.18289 33.6356 7.16741C33.7112 7.15838 33.8027 7.14482 33.9102 7.12671C34.0182 7.11381 34.1293 7.1032 34.2434 7.09487C34.3574 7.08654 34.4671 7.08667 34.5722 7.09527C34.6827 7.10323 34.7759 7.12647 34.8518 7.16499C34.8993 7.19632 34.938 7.24458 34.9677 7.30976C35.0028 7.3743 35.0247 7.44305 35.0334 7.51602C35.0427 7.59421 35.0379 7.66879 35.019 7.73978C35.0007 7.81597 34.9691 7.87261 34.9242 7.90969C34.8943 7.93441 34.8502 7.95553 34.792 7.97304C34.7338 7.99056 34.6672 8.00644 34.5922 8.02068C34.5232 8.03949 34.4482 8.05373 34.3672 8.0634C34.2922 8.07764 34.2222 8.08863 34.1574 8.09637Z" fill="#FFA02F"/>
<path d="M21.3649 2.70906C21.4657 2.82331 21.5791 2.95185 21.7051 3.09466C21.835 3.23401 21.9683 3.3812 22.1051 3.53626C22.2383 3.68724 22.3714 3.83821 22.5046 3.98919C22.6342 4.13608 22.7528 4.27451 22.8604 4.40448C22.9105 4.46916 22.964 4.54169 23.0209 4.62209C23.0742 4.6984 23.1161 4.77757 23.1464 4.85962C23.1768 4.94166 23.1844 5.02565 23.1692 5.1116C23.1544 5.18999 23.1038 5.26361 23.0175 5.33245C22.8883 5.43194 22.7511 5.45499 22.606 5.40159C22.4649 5.34473 22.3094 5.22796 22.1395 5.05128C22.0568 4.95743 21.9594 4.85104 21.8475 4.7321C21.7395 4.60968 21.6278 4.48697 21.5122 4.36395C21.4007 4.23745 21.2927 4.11504 21.1883 3.99671C21.0803 3.8743 20.9831 3.76412 20.8967 3.66619C20.8464 3.60907 20.7832 3.54144 20.7073 3.4633C20.6353 3.38169 20.5635 3.29631 20.4918 3.20715C20.4202 3.11799 20.358 3.0277 20.3054 2.93628C20.2491 2.84078 20.2153 2.75088 20.204 2.66658C20.2027 2.60963 20.2205 2.55042 20.2573 2.48896C20.2905 2.42341 20.3346 2.36633 20.3897 2.31772C20.4488 2.26563 20.5129 2.22722 20.5821 2.20248C20.6552 2.17426 20.7197 2.1681 20.7757 2.18399C20.8131 2.19458 20.8555 2.21885 20.903 2.25679C20.9504 2.29473 21.0013 2.34052 21.0557 2.39418C21.1103 2.44028 21.1646 2.49393 21.2186 2.55514C21.273 2.60879 21.3217 2.6601 21.3649 2.70906Z" fill="#FFA02F"/>
<path d="M19.9379 8.16018C20.09 8.1526 20.2612 8.14407 20.4514 8.1346C20.6414 8.11989 20.8396 8.10739 21.0461 8.09711C21.2472 8.08709 21.4482 8.07708 21.6493 8.06707C21.8449 8.05733 22.0271 8.05088 22.1958 8.04774C22.2776 8.04892 22.3677 8.05232 22.466 8.05793C22.5589 8.06382 22.6469 8.08046 22.73 8.10786C22.8131 8.13526 22.8835 8.18168 22.9412 8.24713C22.9933 8.30761 23.0193 8.39304 23.0194 8.50341C23.0166 8.66648 22.9491 8.78809 22.8169 8.86826C22.6844 8.94318 22.4962 8.99197 22.2522 9.01464C22.1272 9.02086 21.9833 9.03065 21.8205 9.04402C21.6575 9.05213 21.4919 9.06301 21.3237 9.07664C21.1552 9.08503 20.9922 9.09315 20.8346 9.101C20.6716 9.10911 20.5248 9.11642 20.3944 9.12291C20.3183 9.1267 20.2261 9.13392 20.1177 9.14458C20.009 9.14999 19.8974 9.15292 19.783 9.15336C19.6687 9.1538 19.5593 9.1461 19.455 9.13027C19.3453 9.11471 19.2539 9.0851 19.1809 9.04143C19.1356 9.0069 19.1004 8.95609 19.0753 8.88902C19.0447 8.82221 19.0276 8.75211 19.024 8.67871C19.02 8.60007 19.03 8.52599 19.0538 8.45648C19.0773 8.38173 19.1127 8.32741 19.16 8.29351C19.1916 8.27092 19.237 8.25289 19.2963 8.23943C19.3555 8.22597 19.4231 8.21472 19.4989 8.20569C19.569 8.19168 19.6448 8.18265 19.7263 8.17859C19.8022 8.16956 19.8727 8.16342 19.9379 8.16018Z" fill="#FFA02F"/>
<path d="M25.2876 10.5619C25.969 11.0209 26.8127 11.1192 27.8186 10.8569C28.4676 10.6602 28.9705 10.3652 29.3274 9.97176C29.6844 9.54556 29.8953 9.08658 29.9602 8.59481C30.0575 8.10305 29.9764 7.59489 29.7168 7.07034C29.4897 6.54579 29.1003 6.0868 28.5487 5.69339C27.9646 5.26719 27.3805 5.0377 26.7965 5.00492C26.2124 4.97213 25.6932 5.10327 25.2389 5.39833C24.7847 5.66061 24.444 6.05402 24.2168 6.57857C23.9897 7.10312 23.941 7.70963 24.0708 8.39811C24.233 9.34885 24.6386 10.0701 25.2876 10.5619Z" fill="#FFA02F"/>
<path d="M13.3834 16.3806C13.3834 16.1886 13.3834 15.9726 13.3834 15.7326C13.3834 15.4766 13.3914 15.2206 13.4074 14.9646C13.4234 14.6926 13.4474 14.4366 13.4794 14.1966C13.5274 13.9406 13.5914 13.7166 13.6714 13.5246C13.7994 13.2366 13.9994 13.0446 14.2714 12.9486C14.5434 12.8366 14.8394 12.7886 15.1594 12.8046C15.4954 12.8046 15.7594 12.8606 15.9514 12.9726C16.1434 13.0846 16.2874 13.2366 16.3834 13.4286C16.4794 13.6046 16.5354 13.8126 16.5514 14.0526C16.5834 14.2766 16.5994 14.5166 16.5994 14.7726C16.7434 14.5166 16.9354 14.3086 17.1754 14.1486C17.4314 13.9886 17.6874 13.8606 17.9434 13.7646C18.1994 13.6686 18.4314 13.6046 18.6394 13.5726C18.8474 13.5246 18.9674 13.5006 18.9994 13.5006C19.3994 13.4686 19.7594 13.4606 20.0794 13.4766C20.4154 13.4926 20.7834 13.5646 21.1834 13.6926C21.4394 13.7886 21.7034 13.9246 21.9754 14.1006C22.2474 14.2606 22.4874 14.4526 22.6954 14.6766C22.9034 14.9006 23.0394 15.1486 23.1034 15.4206C23.1834 15.6766 23.1514 15.9486 23.0074 16.2366C22.7834 16.6366 22.5354 16.8366 22.2634 16.8366C21.9914 16.8206 21.6954 16.7726 21.3754 16.6926C21.1994 16.6606 20.9914 16.5886 20.7514 16.4766C20.5114 16.3646 20.3034 16.2926 20.1274 16.2606C19.5834 16.1806 19.1034 16.2206 18.6874 16.3806C18.2714 16.5406 17.9114 16.7326 17.6074 16.9566C17.2554 17.2286 16.9514 17.5406 16.6954 17.8926V21.3486C16.6954 21.7806 16.6874 22.2286 16.6714 22.6926C16.6714 23.1566 16.6074 23.5806 16.4794 23.9646C16.3674 24.3326 16.1674 24.6366 15.8794 24.8766C15.6074 25.1006 15.2074 25.1966 14.6794 25.1646C14.3914 25.1486 14.1354 25.0126 13.9114 24.7566C13.6874 24.4846 13.5514 24.2206 13.5034 23.9646C13.4714 23.7246 13.4474 23.4366 13.4314 23.1006C13.4154 22.7646 13.3994 22.4126 13.3834 22.0446C13.3834 21.6766 13.3834 21.3086 13.3834 20.9406C13.3834 20.5566 13.3834 20.2046 13.3834 19.8846V16.3806Z" fill="white"/>
<path d="M9.456 16.0206C9.92 16.3246 10.312 16.6846 10.632 17.1006C10.968 17.5006 11.232 17.9966 11.424 18.5886C11.632 19.2446 11.736 19.9086 11.736 20.5806C11.752 21.2366 11.632 21.8526 11.376 22.4286C11.136 22.9886 10.744 23.4846 10.2 23.9166C9.672 24.3326 8.976 24.6286 8.112 24.8046C7.648 24.9166 7.104 25.0046 6.48 25.0686C5.856 25.1326 5.296 25.1646 4.8 25.1646C4.176 25.1806 3.528 25.1806 2.856 25.1646C2.2 25.1646 1.56 25.1006 0.936 24.9726C0.664 24.8926 0.464 24.7566 0.336 24.5646C0.224 24.3566 0.144 24.1246 0.0960001 23.8686C0.0320001 23.7246 0 23.5806 0 23.4366V9.80458C0 9.35658 0.0880001 9.01258 0.264 8.77258C0.456 8.51658 0.704 8.33258 1.008 8.22058C1.312 8.09258 1.656 8.02058 2.04 8.00458C2.424 7.97258 2.824 7.95658 3.24 7.95658C3.56 7.95658 3.88 7.95658 4.2 7.95658C4.536 7.94058 4.872 7.94058 5.208 7.95658C5.736 7.97258 6.28 8.02058 6.84 8.10058C7.416 8.16458 7.96 8.29258 8.472 8.48458C8.712 8.56458 8.968 8.67658 9.24 8.82058C9.512 8.94858 9.728 9.10858 9.888 9.30058C10.4 9.76458 10.776 10.3086 11.016 10.9326C11.272 11.5406 11.384 12.1646 11.352 12.8046C11.32 13.4286 11.144 14.0286 10.824 14.6046C10.52 15.1806 10.064 15.6526 9.456 16.0206ZM5.256 22.3806C5.752 22.3486 6.256 22.2926 6.768 22.2126C7.28 22.1326 7.632 21.9806 7.824 21.7566C8.032 21.5006 8.176 21.2046 8.256 20.8686C8.352 20.5166 8.376 20.1646 8.328 19.8126C8.296 19.4446 8.192 19.1006 8.016 18.7806C7.856 18.4446 7.64 18.1806 7.368 17.9886C7 17.7006 6.576 17.5166 6.096 17.4366C5.616 17.3406 5.144 17.2926 4.68 17.2926C4.456 17.2926 4.248 17.3006 4.056 17.3166C3.88 17.3166 3.72 17.3406 3.576 17.3886C3.448 17.4206 3.352 17.4926 3.288 17.6046C3.224 17.7166 3.192 17.8846 3.192 18.1086C3.224 18.5246 3.224 18.9406 3.192 19.3566C3.16 19.7726 3.144 20.1726 3.144 20.5566C3.144 20.7806 3.136 21.0286 3.12 21.3006C3.12 21.5566 3.208 21.7726 3.384 21.9486C3.56 22.1246 3.816 22.2446 4.152 22.3086C4.488 22.3726 4.856 22.3966 5.256 22.3806ZM5.736 10.8606C5.24 10.8446 4.824 10.8366 4.488 10.8366C4.168 10.8206 3.912 10.8446 3.72 10.9086C3.544 10.9566 3.416 11.0766 3.336 11.2686C3.272 11.4446 3.248 11.7166 3.264 12.0846C3.264 12.3886 3.256 12.6926 3.24 12.9966C3.24 13.2846 3.24 13.5726 3.24 13.8606C3.24 14.1806 3.344 14.4206 3.552 14.5806C3.76 14.7246 4.016 14.8126 4.32 14.8446C4.64 14.8766 4.968 14.8766 5.304 14.8446C5.656 14.8126 5.96 14.7726 6.216 14.7246C6.792 14.6286 7.232 14.4366 7.536 14.1486C7.856 13.8446 8.04 13.4046 8.088 12.8286C8.152 12.1086 7.96 11.6126 7.512 11.3406C7.08 11.0526 6.488 10.8926 5.736 10.8606Z" fill="white"/>
</svg>
