<svg width="125" height="32" viewBox="0 0 125 32" fill="none" xmlns="http://www.w3.org/2000/svg">
<g id="BrightR.Club">
<path id="Vector" d="M115.501 10.5428C115.533 9.96684 115.709 9.50284 116.029 9.15084C116.365 8.79884 116.837 8.70284 117.445 8.86284C117.733 8.94284 117.941 9.06284 118.069 9.22284C118.213 9.38284 118.309 9.57484 118.357 9.79884C118.421 10.0068 118.453 10.2388 118.453 10.4948C118.453 10.7348 118.453 10.9748 118.453 11.2148V14.5268C118.437 14.6548 118.429 14.7828 118.429 14.9108C118.445 15.0228 118.453 15.1268 118.453 15.2228V15.5348H119.053C119.229 15.5348 119.397 15.5348 119.557 15.5348C119.733 15.5348 119.885 15.5268 120.013 15.5108C120.893 15.5108 121.645 15.6388 122.269 15.8948C122.909 16.1508 123.421 16.5108 123.805 16.9748C124.205 17.4228 124.493 17.9668 124.669 18.6068C124.861 19.2308 124.949 19.9188 124.933 20.6708C124.917 21.5668 124.773 22.3348 124.501 22.9748C124.229 23.6148 123.845 24.1428 123.349 24.5588C122.853 24.9748 122.253 25.2868 121.549 25.4948C120.861 25.6868 120.085 25.7828 119.221 25.7828C118.229 25.7828 117.477 25.7748 116.965 25.7588C116.453 25.7428 116.085 25.5988 115.861 25.3268C115.653 25.0548 115.541 24.5828 115.525 23.9108C115.509 23.2388 115.501 22.2548 115.501 20.9588C115.501 19.7108 115.501 18.4788 115.501 17.2628C115.517 16.0468 115.517 14.8228 115.501 13.5908C115.501 13.4308 115.493 13.2628 115.477 13.0868C115.477 12.9108 115.477 12.7108 115.477 12.4868C115.477 12.2628 115.477 11.9988 115.477 11.6948C115.477 11.3748 115.485 10.9908 115.501 10.5428ZM119.989 23.0948C120.869 23.0468 121.477 22.8068 121.813 22.3748C121.989 22.1348 122.125 21.8468 122.221 21.5108C122.317 21.1748 122.357 20.8388 122.341 20.5028C122.325 20.1668 122.253 19.8468 122.125 19.5428C122.013 19.2228 121.829 18.9588 121.573 18.7508C121.349 18.5588 121.125 18.4228 120.901 18.3428C120.677 18.2468 120.445 18.1908 120.205 18.1748C119.965 18.1428 119.709 18.1348 119.437 18.1508C119.165 18.1508 118.853 18.1588 118.501 18.1748V21.0548L118.453 23.0468C118.613 23.0628 118.781 23.0788 118.957 23.0948C119.261 23.1268 119.605 23.1268 119.989 23.0948Z" fill="black"/>
<path id="Vector_2" d="M113.481 19.9989C113.449 20.5269 113.417 21.0629 113.385 21.6069C113.353 22.1349 113.265 22.6469 113.121 23.1429C112.993 23.6389 112.785 24.0869 112.497 24.4869C112.225 24.8869 111.833 25.2069 111.321 25.4469C110.873 25.6709 110.393 25.8229 109.881 25.9029C109.369 25.9989 108.857 26.0389 108.345 26.0229C107.833 26.0069 107.337 25.9269 106.857 25.7829C106.377 25.6549 105.945 25.4709 105.561 25.2309C105.177 24.9909 104.865 24.6789 104.625 24.2949C104.385 23.9109 104.193 23.4949 104.049 23.0469C103.921 22.5989 103.833 22.1349 103.785 21.6549C103.737 21.1749 103.705 20.7269 103.689 20.3109C103.625 19.2069 103.625 18.1189 103.689 17.0469C103.689 16.8389 103.689 16.6069 103.689 16.3509C103.689 16.0789 103.705 15.8149 103.737 15.5589C103.785 15.3029 103.857 15.0709 103.953 14.8629C104.049 14.6389 104.209 14.4709 104.433 14.3589C104.913 14.1029 105.353 14.0869 105.753 14.3109C106.169 14.5349 106.417 14.9989 106.497 15.7029C106.545 16.0709 106.561 16.4789 106.545 16.9269C106.545 17.3749 106.561 17.7829 106.593 18.1509C106.609 18.6949 106.625 19.2869 106.641 19.9269C106.657 20.5509 106.745 21.1109 106.905 21.6069C107.081 22.1029 107.361 22.4789 107.745 22.7349C108.145 22.9749 108.737 22.9829 109.521 22.7589C109.889 22.6469 110.129 22.3669 110.241 21.9189C110.369 21.4709 110.433 20.8069 110.433 19.9269C110.433 19.5429 110.425 19.1189 110.409 18.6549C110.393 18.1909 110.385 17.7349 110.385 17.2869C110.385 16.8229 110.393 16.3989 110.409 16.0149C110.441 15.6149 110.489 15.3109 110.553 15.1029C110.633 14.8149 110.801 14.5989 111.057 14.4549C111.313 14.3109 111.585 14.2389 111.873 14.2389C112.161 14.2229 112.433 14.2789 112.689 14.4069C112.945 14.5349 113.121 14.7429 113.217 15.0309C113.313 15.2869 113.377 15.6149 113.409 16.0149C113.457 16.3989 113.489 16.8229 113.505 17.2869C113.521 17.7349 113.521 18.1989 113.505 18.6789C113.505 19.1429 113.497 19.5829 113.481 19.9989Z" fill="black"/>
<path id="Vector_3" d="M101.653 23.7908C101.637 23.8708 101.621 23.9508 101.605 24.0308C101.605 24.0948 101.605 24.1668 101.605 24.2468L101.461 24.7508C101.429 24.8148 101.405 24.8548 101.389 24.8708L101.317 25.0148C101.237 25.1908 101.093 25.3348 100.885 25.4468C100.501 25.6388 100.093 25.6868 99.6609 25.5908C99.3889 25.5588 99.1729 25.4788 99.0129 25.3508C98.8529 25.2388 98.7409 25.1028 98.6769 24.9428C98.6129 24.7828 98.5649 24.6228 98.5329 24.4628C98.4849 24.3028 98.4609 24.1588 98.4609 24.0308V10.5908C98.4609 10.4788 98.4609 10.3828 98.4609 10.3028C98.4769 10.2068 98.4929 10.1188 98.5089 10.0388C98.5249 9.92677 98.5409 9.83077 98.5569 9.75077C98.5889 9.67077 98.6209 9.58277 98.6529 9.48677C98.7009 9.32677 98.7889 9.19877 98.9169 9.10277C99.1089 8.95877 99.2929 8.87877 99.4689 8.86277C99.5809 8.83077 99.6849 8.81477 99.7809 8.81477C99.8769 8.79877 99.9889 8.79077 100.117 8.79077C100.341 8.79077 100.597 8.85477 100.885 8.98277C101.109 9.11077 101.269 9.28677 101.365 9.51077C101.525 9.83077 101.605 10.1268 101.605 10.3988C101.621 10.5588 101.629 10.7988 101.629 11.1188C101.645 11.4388 101.653 11.6788 101.653 11.8388V11.9348C101.685 12.4468 101.701 12.9428 101.701 13.4228C101.701 13.8868 101.693 14.3988 101.677 14.9588C101.677 15.5028 101.669 16.0308 101.653 16.5428C101.653 17.0388 101.653 17.5348 101.653 18.0308V23.0708C101.653 23.1348 101.653 23.1988 101.653 23.2628C101.669 23.3108 101.677 23.3668 101.677 23.4308C101.677 23.5908 101.669 23.7108 101.653 23.7908Z" fill="black"/>
<path id="Vector_4" d="M96.369 21.6787C96.577 22.1427 96.585 22.5987 96.393 23.0467C96.201 23.4787 95.897 23.8787 95.481 24.2467C95.065 24.6147 94.585 24.9347 94.041 25.2067C93.513 25.4787 93.009 25.6707 92.529 25.7827C92.001 25.8947 91.441 25.9427 90.849 25.9267C90.273 25.9267 89.689 25.8547 89.097 25.7107C88.521 25.5827 87.953 25.3907 87.393 25.1347C86.849 24.8627 86.345 24.5347 85.881 24.1507C85.321 23.6867 84.881 23.1347 84.561 22.4947C84.257 21.8387 84.033 21.1427 83.889 20.4067C83.745 19.6707 83.665 18.9347 83.649 18.1987C83.649 17.4467 83.673 16.7427 83.721 16.0867C83.769 15.4947 83.889 14.8787 84.081 14.2387C84.273 13.5987 84.537 12.9747 84.873 12.3667C85.225 11.7427 85.641 11.1667 86.121 10.6387C86.617 10.1107 87.193 9.66273 87.849 9.29473C88.345 9.00673 88.897 8.81473 89.505 8.71873C90.129 8.60673 90.753 8.58273 91.377 8.64673C92.017 8.69473 92.617 8.83073 93.177 9.05473C93.753 9.26273 94.241 9.55072 94.641 9.91872C94.897 10.1427 95.161 10.4547 95.433 10.8547C95.721 11.2547 95.929 11.6627 96.057 12.0787C96.185 12.4947 96.185 12.8867 96.057 13.2547C95.945 13.6067 95.625 13.8467 95.097 13.9747C94.873 14.0387 94.673 14.0547 94.497 14.0227C94.321 13.9747 94.161 13.9027 94.017 13.8067C93.873 13.6947 93.737 13.5667 93.609 13.4227C93.481 13.2787 93.361 13.1347 93.249 12.9907C92.865 12.5267 92.417 12.2147 91.905 12.0547C91.393 11.8787 90.881 11.8387 90.369 11.9347C89.873 12.0147 89.401 12.2227 88.953 12.5587C88.521 12.8787 88.185 13.2947 87.945 13.8067C87.689 14.3507 87.481 14.9507 87.321 15.6067C87.177 16.2467 87.097 16.9027 87.081 17.5747C87.065 18.2307 87.121 18.8707 87.249 19.4947C87.393 20.1187 87.633 20.6707 87.969 21.1507C88.225 21.5347 88.537 21.8467 88.905 22.0867C89.289 22.3267 89.697 22.4947 90.129 22.5907C90.561 22.6867 90.993 22.7027 91.425 22.6387C91.873 22.5747 92.305 22.4307 92.721 22.2067C92.849 22.1427 92.985 22.0547 93.129 21.9427C93.289 21.8147 93.449 21.6867 93.609 21.5587C93.769 21.4307 93.929 21.3107 94.089 21.1987C94.265 21.0867 94.449 21.0067 94.641 20.9587C94.929 20.8627 95.241 20.8707 95.577 20.9827C95.929 21.0947 96.193 21.3267 96.369 21.6787Z" fill="black"/>
<path id="Vector_5" d="M81.7723 25.7108C81.7723 26.1268 81.6203 26.4788 81.3163 26.7668C81.0283 27.0708 80.6763 27.2228 80.2603 27.2228C79.8443 27.2228 79.4843 27.0708 79.1803 26.7668C78.8923 26.4788 78.7483 26.1268 78.7483 25.7108C78.7483 25.2948 78.8923 24.9348 79.1803 24.6308C79.4843 24.3268 79.8443 24.1748 80.2603 24.1748C80.6763 24.1748 81.0283 24.3268 81.3163 24.6308C81.6203 24.9348 81.7723 25.2948 81.7723 25.7108Z" fill="black"/>
<path id="Vector_6" d="M76.884 24.6548C76.9 24.8148 76.884 24.9668 76.836 25.1108C76.804 25.2068 76.756 25.2868 76.692 25.3508C76.644 25.4148 76.58 25.4788 76.5 25.5428C76.356 25.6388 76.18 25.7268 75.972 25.8068C75.844 25.8388 75.716 25.8628 75.588 25.8788C75.476 25.9108 75.356 25.9108 75.228 25.8788C74.972 25.8628 74.748 25.7668 74.556 25.5908C74.284 25.3668 74.06 25.1188 73.884 24.8468C73.804 24.7188 73.716 24.5748 73.62 24.4148C73.524 24.2548 73.436 24.0868 73.356 23.9108L70.692 18.8468C70.564 18.8468 70.436 18.8548 70.308 18.8708C70.18 18.8708 70.052 18.8788 69.924 18.8948C69.588 18.9268 69.268 18.9348 68.964 18.9188C68.676 18.9028 68.372 18.9028 68.052 18.9188H67.596V23.2628C67.596 23.3908 67.588 23.5108 67.572 23.6228C67.572 23.7348 67.572 23.8548 67.572 23.9828C67.572 24.0628 67.564 24.1668 67.548 24.2948C67.548 24.4228 67.54 24.5428 67.524 24.6548C67.492 24.8308 67.42 25.0148 67.308 25.2068C67.196 25.3828 67.044 25.5348 66.852 25.6628C66.516 25.8708 66.108 25.9268 65.628 25.8308C65.42 25.7828 65.22 25.7028 65.028 25.5908C64.964 25.5428 64.908 25.4868 64.86 25.4228C64.812 25.3428 64.772 25.2628 64.74 25.1828C64.708 25.1028 64.676 25.0228 64.644 24.9428C64.628 24.8468 64.604 24.7588 64.572 24.6788C64.524 24.5188 64.5 24.3668 64.5 24.2228V10.5908C64.5 10.4948 64.5 10.3988 64.5 10.3028C64.516 10.1908 64.532 10.0948 64.548 10.0148C64.564 9.83877 64.62 9.66277 64.716 9.48677C64.764 9.29477 64.844 9.15877 64.956 9.07877C65.052 8.98277 65.196 8.90277 65.388 8.83877C65.596 8.75877 65.892 8.72677 66.276 8.74277C66.996 8.75877 67.708 8.76677 68.412 8.76677C69.116 8.76677 69.82 8.78277 70.524 8.81477C70.988 8.84677 71.476 8.90277 71.988 8.98277C72.516 9.04677 73.004 9.16677 73.452 9.34277C73.74 9.45477 74.004 9.56677 74.244 9.67877C74.548 9.85477 74.788 10.0228 74.964 10.1828C75.524 10.6948 75.948 11.3108 76.236 12.0308C76.524 12.7508 76.668 13.4788 76.668 14.2148C76.668 15.0788 76.46 15.8708 76.044 16.5908C75.644 17.3108 74.996 17.8468 74.1 18.1988C74.068 18.2308 74.02 18.2548 73.956 18.2708C73.908 18.2708 73.868 18.2788 73.836 18.2948L76.044 22.7348L76.26 23.1188C76.292 23.1828 76.332 23.2548 76.38 23.3348C76.428 23.4148 76.468 23.4948 76.5 23.5748C76.548 23.6548 76.588 23.7428 76.62 23.8388C76.668 23.9348 76.716 24.0228 76.764 24.1028C76.812 24.3268 76.852 24.5108 76.884 24.6548ZM70.884 16.1108C71.172 16.1108 71.444 16.0628 71.7 15.9668C71.972 15.8548 72.212 15.7108 72.42 15.5348C72.644 15.3588 72.828 15.1588 72.972 14.9348C73.116 14.6948 73.196 14.4388 73.212 14.1668C73.276 13.3668 73.068 12.7748 72.588 12.3908C72.108 11.9908 71.476 11.7748 70.692 11.7428C70.228 11.7108 69.716 11.6948 69.156 11.6948C68.612 11.6948 68.092 11.6948 67.596 11.6948C67.612 12.3508 67.612 13.0228 67.596 13.7108C67.596 14.3828 67.596 15.1828 67.596 16.1108H70.884Z" fill="black"/>
<path id="Vector_7" d="M62.4667 15.1268C62.5947 15.4308 62.6027 15.7668 62.4907 16.1348C62.3947 16.5028 62.2107 16.7428 61.9387 16.8548C61.7947 16.9188 61.6027 16.9748 61.3627 17.0228C61.1227 17.0548 60.8587 17.0868 60.5707 17.1188C60.2987 17.1508 60.0267 17.1748 59.7547 17.1908C59.4827 17.2068 59.2507 17.2148 59.0587 17.2148C59.0747 17.6948 59.0907 18.1908 59.1067 18.7028C59.1227 19.1988 59.1387 19.6868 59.1547 20.1668C59.1707 20.6468 59.1787 21.1108 59.1787 21.5588C59.1787 21.9908 59.1707 22.3828 59.1547 22.7348C59.1547 22.9748 59.1547 23.2548 59.1547 23.5748C59.1547 23.8788 59.1307 24.1748 59.0827 24.4628C59.0507 24.7508 58.9947 25.0068 58.9147 25.2308C58.8347 25.4388 58.7147 25.5748 58.5547 25.6388C58.0587 25.8468 57.6027 25.9028 57.1867 25.8068C56.7867 25.7268 56.4987 25.5588 56.3227 25.3028C56.1947 25.0948 56.0987 24.8548 56.0347 24.5828C55.9707 24.2948 55.9227 24.0068 55.8907 23.7188C55.8747 23.4148 55.8667 23.1268 55.8667 22.8548C55.8827 22.5668 55.8907 22.3188 55.8907 22.1108C55.9067 21.4388 55.9147 20.6788 55.9147 19.8308C55.9307 18.9668 55.9387 18.1028 55.9387 17.2388H55.5787C55.3867 17.2388 55.1387 17.2388 54.8347 17.2388C54.5467 17.2228 54.2507 17.1988 53.9467 17.1668C53.6587 17.1188 53.3867 17.0628 53.1307 16.9988C52.8747 16.9188 52.6907 16.8068 52.5787 16.6628C52.4027 16.4548 52.2907 16.2308 52.2427 15.9908C52.2107 15.7508 52.2267 15.5268 52.2907 15.3188C52.3707 15.0948 52.4907 14.9028 52.6507 14.7428C52.8107 14.5668 52.9947 14.4548 53.2027 14.4068C53.4907 14.3268 53.8987 14.2868 54.4267 14.2868C54.9547 14.2708 55.4507 14.2708 55.9147 14.2868C55.8987 14.1268 55.8907 13.9748 55.8907 13.8308C55.8907 13.6708 55.8827 13.5188 55.8667 13.3748C55.8507 13.1828 55.8427 12.9428 55.8427 12.6548C55.8427 12.3508 55.8587 12.0548 55.8907 11.7668C55.9387 11.4628 56.0107 11.1828 56.1067 10.9268C56.2027 10.6548 56.3387 10.4468 56.5147 10.3028C56.7547 10.1108 56.9947 10.0068 57.2347 9.99076C57.4907 9.95876 57.7227 9.99076 57.9307 10.0868C58.1547 10.1828 58.3387 10.3268 58.4827 10.5188C58.6427 10.6948 58.7547 10.8948 58.8187 11.1188C58.8667 11.3108 58.9067 11.5428 58.9387 11.8148C58.9707 12.0708 58.9867 12.3428 58.9867 12.6308C59.0027 12.9188 59.0107 13.2068 59.0107 13.4948C59.0107 13.7828 59.0107 14.0468 59.0107 14.2868H59.2507C59.4907 14.2868 59.7707 14.2788 60.0907 14.2628C60.4107 14.2468 60.7227 14.2548 61.0267 14.2868C61.3467 14.3188 61.6347 14.3988 61.8907 14.5268C62.1467 14.6388 62.3387 14.8388 62.4667 15.1268Z" fill="black"/>
<path id="Vector_8" d="M51.4772 20.9829C51.4932 21.3029 51.5012 21.6389 51.5012 21.9909C51.5012 22.3269 51.4932 22.6389 51.4772 22.9269C51.4612 23.3589 51.4372 23.7589 51.4052 24.1269C51.3732 24.4789 51.3092 24.7829 51.2132 25.0389C51.1172 25.2789 50.9652 25.4629 50.7572 25.5909C50.5652 25.7029 50.2932 25.7349 49.9412 25.6869C49.5732 25.6389 49.3092 25.4629 49.1492 25.1589C48.9892 24.8549 48.8772 24.5109 48.8132 24.1269C48.7652 23.7269 48.7492 23.3269 48.7652 22.9269C48.7812 22.5269 48.7812 22.2149 48.7652 21.9909C48.7492 21.6389 48.7332 21.2389 48.7172 20.7909C48.7172 20.3269 48.6692 19.8949 48.5732 19.4949C48.4932 19.0789 48.3492 18.7269 48.1412 18.4389C47.9332 18.1509 47.6212 17.9989 47.2052 17.9829C46.6772 17.9509 46.2692 17.9909 45.9812 18.1029C45.7092 18.2149 45.5092 18.3829 45.3812 18.6069C45.2532 18.8149 45.1732 19.0709 45.1412 19.3749C45.1252 19.6789 45.0932 20.0069 45.0452 20.3589L45.0212 21.2949V23.0469C45.0212 23.3349 45.0132 23.6389 44.9972 23.9589C44.9972 24.2629 44.9492 24.5429 44.8532 24.7989C44.7572 25.0549 44.6052 25.2709 44.3972 25.4469C44.2052 25.6229 43.9172 25.7109 43.5332 25.7109C43.0532 25.7109 42.6932 25.5589 42.4532 25.2549C42.2292 24.9349 42.1172 24.5429 42.1172 24.0789V10.2789C42.1172 10.1829 42.1172 10.0949 42.1172 10.0149C42.1332 9.91893 42.1492 9.82293 42.1652 9.72693C42.1972 9.63093 42.2212 9.54293 42.2372 9.46293C42.2532 9.36693 42.2772 9.27893 42.3092 9.19893C42.3572 9.03893 42.4372 8.91893 42.5492 8.83893C42.6292 8.75893 42.7092 8.69493 42.7892 8.64693C42.8692 8.59893 42.9572 8.56693 43.0532 8.55093C43.1332 8.53493 43.2212 8.52693 43.3172 8.52693C43.4132 8.51093 43.5092 8.50293 43.6052 8.50293C43.8452 8.50293 44.0772 8.57493 44.3012 8.71893C44.3972 8.78293 44.4852 8.85493 44.5652 8.93493C44.6452 8.99893 44.7092 9.09493 44.7572 9.22293C44.8852 9.52693 44.9492 9.81493 44.9492 10.0869C44.9652 10.1669 44.9732 10.2869 44.9732 10.4469C44.9892 10.5909 44.9972 10.7429 44.9972 10.9029C44.9972 11.0629 44.9972 11.2229 44.9972 11.3829C45.0132 11.5269 45.0212 11.6389 45.0212 11.7189V11.8389C45.0372 12.3509 45.0452 12.8709 45.0452 13.3989C45.0452 13.9269 45.0452 14.4629 45.0452 15.0069V15.4149C45.7172 15.1909 46.4212 15.0869 47.1572 15.1029C47.8932 15.1029 48.5492 15.2469 49.1252 15.5349C49.7172 15.8389 50.1652 16.1829 50.4692 16.5669C50.7892 16.9509 51.0212 17.3749 51.1652 17.8389C51.3092 18.3029 51.3892 18.7989 51.4052 19.3269C51.4372 19.8549 51.4612 20.4069 51.4772 20.9829Z" fill="black"/>
<path id="Vector_9" d="M40.171 21.1747C40.171 21.6867 40.155 22.2387 40.123 22.8307C40.107 23.4227 40.083 23.9747 40.051 24.4867C40.051 24.9667 40.027 25.4467 39.979 25.9267C39.947 26.3427 39.883 26.7907 39.787 27.2707C39.691 27.7667 39.555 28.2227 39.379 28.6387C39.155 29.1827 38.851 29.6467 38.467 30.0307C38.083 30.4307 37.587 30.7187 36.979 30.8947C36.467 31.0227 35.987 31.1027 35.539 31.1347C35.091 31.1827 34.611 31.1747 34.099 31.1107C33.763 31.0627 33.403 30.9667 33.019 30.8227C32.635 30.6947 32.275 30.5267 31.939 30.3187C31.603 30.1107 31.307 29.8627 31.051 29.5747C30.795 29.3027 30.619 28.9907 30.523 28.6387C30.411 28.2067 30.403 27.8307 30.499 27.5107C30.611 27.1907 30.779 26.9587 31.003 26.8147C31.227 26.6707 31.491 26.6467 31.795 26.7427C32.099 26.8387 32.387 27.0867 32.659 27.4867C32.851 27.7747 33.131 28.0067 33.499 28.1827C33.867 28.3587 34.259 28.4627 34.675 28.4947C35.091 28.5267 35.491 28.4707 35.875 28.3267C36.275 28.1987 36.587 27.9667 36.811 27.6307C36.971 27.3907 37.083 27.0467 37.147 26.5987C37.227 26.1507 37.275 25.7107 37.291 25.2787C36.475 25.6147 35.635 25.7427 34.771 25.6627C33.923 25.5667 33.147 25.3027 32.443 24.8707C31.755 24.4227 31.195 23.8307 30.763 23.0947C30.347 22.3427 30.171 21.4947 30.235 20.5507C30.283 19.7347 30.451 18.9667 30.739 18.2467C31.043 17.5267 31.539 16.9267 32.227 16.4467C32.787 16.0627 33.419 15.8147 34.123 15.7027C34.827 15.5747 35.507 15.5107 36.163 15.5107C36.547 15.5107 36.923 15.5107 37.291 15.5107C37.675 15.5107 38.027 15.5587 38.347 15.6547C38.667 15.7507 38.955 15.9107 39.211 16.1347C39.467 16.3587 39.659 16.6867 39.787 17.1187C39.995 17.7907 40.107 18.4547 40.123 19.1107C40.155 19.7667 40.171 20.4547 40.171 21.1747ZM35.539 23.1667C35.699 23.1667 35.851 23.1507 35.995 23.1187C36.155 23.0867 36.307 23.0467 36.451 22.9987C36.723 22.9027 36.923 22.7747 37.051 22.6147C37.195 22.4547 37.291 22.2787 37.339 22.0867C37.387 21.8787 37.403 21.6547 37.387 21.4147C37.387 21.1747 37.387 20.9267 37.387 20.6707C37.387 20.4627 37.379 20.2307 37.363 19.9747C37.363 19.7187 37.347 19.4787 37.315 19.2547C37.283 19.0147 37.235 18.8067 37.171 18.6307C37.107 18.4547 37.011 18.3427 36.883 18.2947C36.659 18.2307 36.403 18.1907 36.115 18.1747C35.827 18.1427 35.539 18.1427 35.251 18.1747C34.963 18.1907 34.683 18.2467 34.411 18.3427C34.155 18.4227 33.939 18.5347 33.763 18.6787C33.523 18.8867 33.339 19.1427 33.211 19.4467C33.083 19.7507 33.003 20.0707 32.971 20.4067C32.955 20.7427 32.979 21.0707 33.043 21.3907C33.123 21.7107 33.259 21.9987 33.451 22.2547C33.675 22.5747 33.979 22.8067 34.363 22.9507C34.747 23.0947 35.139 23.1667 35.539 23.1667Z" fill="black"/>
<path id="Vector_10" d="M28.1021 16.6147C28.1021 17.0627 28.1021 17.5667 28.1021 18.1267C28.1181 18.6867 28.1261 19.2707 28.1261 19.8787C28.1261 20.4707 28.1261 21.0627 28.1261 21.6547C28.1261 22.2307 28.1181 22.7667 28.1021 23.2627C28.0861 23.5027 28.0621 23.7667 28.0301 24.0547C27.9981 24.3267 27.9341 24.5827 27.8381 24.8227C27.7421 25.0627 27.5901 25.2627 27.3821 25.4227C27.1901 25.5667 26.9261 25.6307 26.5901 25.6147C26.0941 25.5827 25.7341 25.3667 25.5101 24.9667C25.3021 24.5667 25.1821 24.0067 25.1501 23.2867C25.1501 22.9187 25.1421 22.4947 25.1261 22.0147C25.1261 21.5347 25.1181 21.0467 25.1021 20.5507C25.1021 20.0547 25.1021 19.5747 25.1021 19.1107C25.1021 18.6307 25.1021 18.1987 25.1021 17.8147C25.1021 17.5907 25.0941 17.3187 25.0781 16.9987C25.0781 16.6787 25.0861 16.3507 25.1021 16.0147C25.1181 15.6787 25.1581 15.3587 25.2221 15.0547C25.2861 14.7347 25.3901 14.4707 25.5341 14.2627C25.6461 14.1347 25.8061 14.0387 26.0141 13.9747C26.2221 13.8947 26.4381 13.8547 26.6621 13.8547C26.9021 13.8547 27.1261 13.8947 27.3341 13.9747C27.5581 14.0547 27.7181 14.1667 27.8141 14.3107C27.8781 14.4067 27.9261 14.5427 27.9581 14.7187C27.9901 14.8947 28.0141 15.0947 28.0301 15.3187C28.0621 15.5267 28.0781 15.7507 28.0781 15.9907C28.0941 16.2147 28.1021 16.4227 28.1021 16.6147Z" fill="black"/>
<path id="Vector_11" d="M26.9921 1.77281C26.9921 1.92516 26.9921 2.09656 26.9921 2.28699C26.9974 2.47743 27 2.67603 27 2.88279C27 3.08411 27 3.28543 27 3.48675C27 3.68263 26.9974 3.8649 26.9921 4.03358C26.9869 4.11519 26.979 4.20497 26.9685 4.30291C26.958 4.39541 26.937 4.48246 26.9055 4.56408C26.874 4.6457 26.8241 4.71371 26.7559 4.76812C26.6929 4.81709 26.6063 4.83885 26.4961 4.83341C26.3333 4.82253 26.2152 4.74908 26.1417 4.61305C26.0735 4.47702 26.0341 4.28659 26.0236 4.04174C26.0236 3.91659 26.021 3.7724 26.0157 3.60917C26.0157 3.44594 26.0131 3.27999 26.0079 3.11132C26.0079 2.94264 26.0079 2.77941 26.0079 2.62162C26.0079 2.45839 26.0079 2.31148 26.0079 2.18089C26.0079 2.10472 26.0052 2.01222 26 1.9034C26 1.79458 26.0026 1.68304 26.0079 1.56877C26.0131 1.45451 26.0262 1.34569 26.0472 1.24231C26.0682 1.13349 26.1024 1.04371 26.1496 0.972976C26.1864 0.929447 26.2388 0.896801 26.3071 0.875037C26.3753 0.847831 26.4462 0.834229 26.5197 0.834229C26.5984 0.834229 26.6719 0.847831 26.7402 0.875037C26.8136 0.902242 26.8661 0.940329 26.8976 0.989299C26.9186 1.02195 26.9344 1.06819 26.9449 1.12805C26.9554 1.1879 26.9633 1.25591 26.9685 1.33209C26.979 1.40282 26.9843 1.47899 26.9843 1.56061C26.9895 1.63679 26.9921 1.70752 26.9921 1.77281Z" fill="#FFA02F"/>
<path id="Vector_12" d="M32.2888 3.12392C32.2188 3.2592 32.1399 3.4114 32.0524 3.58051C31.9695 3.75203 31.8805 3.92959 31.7854 4.11319C31.6928 4.29197 31.6002 4.47074 31.5077 4.64951C31.4176 4.82345 31.3314 4.9841 31.2492 5.13147C31.207 5.20153 31.1587 5.27763 31.1044 5.35977C31.0525 5.43708 30.9938 5.50473 30.9283 5.56272C30.8628 5.62072 30.7873 5.65818 30.7017 5.67511C30.6232 5.68963 30.5363 5.66913 30.4409 5.61361C30.3014 5.52911 30.2303 5.40957 30.2276 5.25499C30.2295 5.10281 30.2822 4.9156 30.3854 4.69335C30.443 4.58222 30.5069 4.45297 30.5773 4.30561C30.6524 4.16066 30.7264 4.01209 30.7993 3.8599C30.8769 3.71011 30.9519 3.56516 31.0245 3.42505C31.0995 3.2801 31.1671 3.14964 31.2271 3.03368C31.2622 2.96604 31.3024 2.8827 31.3478 2.78365C31.3978 2.68702 31.4514 2.58917 31.5086 2.49012C31.5658 2.39107 31.6275 2.30047 31.6937 2.21833C31.7624 2.13135 31.834 2.06732 31.9085 2.02623C31.9611 2.00448 32.0227 1.99963 32.0933 2.01168C32.1665 2.0189 32.2356 2.03941 32.3009 2.07321C32.3708 2.10941 32.4298 2.15529 32.4779 2.21083C32.5307 2.26878 32.5598 2.32674 32.5652 2.38471C32.5688 2.42335 32.5616 2.47167 32.5434 2.52964C32.5252 2.58762 32.5009 2.65163 32.4705 2.72169C32.4473 2.78933 32.4169 2.85939 32.3794 2.93186C32.349 3.00192 32.3188 3.06594 32.2888 3.12392Z" fill="#FFA02F"/>
<path id="Vector_13" d="M34.1574 8.93059C34.0061 8.94865 33.8359 8.96896 33.6469 8.99153C33.4584 9.01931 33.2615 9.04545 33.0562 9.06996C32.8563 9.09381 32.6564 9.11767 32.4565 9.14153C32.262 9.16474 32.0807 9.18374 31.9126 9.19852C31.8309 9.20298 31.7408 9.2058 31.6423 9.20698C31.5493 9.20752 31.4603 9.19698 31.3755 9.17538C31.2908 9.15378 31.2173 9.11232 31.1552 9.05101C31.0991 8.99427 31.0672 8.91084 31.0596 8.80074C31.0511 8.63786 31.11 8.51188 31.2364 8.42279C31.3634 8.33891 31.5478 8.27725 31.7897 8.2378C31.914 8.22297 32.0568 8.20328 32.2183 8.17872C32.3804 8.15938 32.5448 8.1371 32.7117 8.1119C32.8792 8.09191 33.0413 8.07257 33.1979 8.05387C33.36 8.03452 33.5059 8.01711 33.6356 8.00164C33.7112 7.99261 33.8027 7.97904 33.9102 7.96094C34.0182 7.94804 34.1293 7.93743 34.2434 7.9291C34.3574 7.92077 34.4671 7.9209 34.5722 7.9295C34.6827 7.93745 34.7759 7.96069 34.8518 7.99922C34.8993 8.03055 34.938 8.07881 34.9677 8.14399C35.0028 8.20852 35.0247 8.27728 35.0334 8.35025C35.0427 8.42844 35.0379 8.50302 35.019 8.57401C35.0007 8.6502 34.9691 8.70684 34.9242 8.74392C34.8943 8.76864 34.8502 8.78975 34.792 8.80727C34.7338 8.82479 34.6672 8.84067 34.5922 8.85491C34.5232 8.87372 34.4482 8.88796 34.3672 8.89763C34.2922 8.91187 34.2222 8.92286 34.1574 8.93059Z" fill="#FFA02F"/>
<path id="Vector_14" d="M21.3649 3.54341C21.4657 3.65767 21.5791 3.7862 21.7051 3.92901C21.835 4.06836 21.9683 4.21556 22.1051 4.37061C22.2383 4.52159 22.3714 4.67256 22.5046 4.82354C22.6342 4.97043 22.7528 5.10886 22.8604 5.23883C22.9105 5.30351 22.964 5.37604 23.0209 5.45644C23.0742 5.53275 23.1161 5.61193 23.1464 5.69397C23.1768 5.77601 23.1844 5.86 23.1692 5.94595C23.1544 6.02434 23.1038 6.09796 23.0175 6.1668C22.8883 6.26629 22.7511 6.28934 22.606 6.23594C22.4649 6.17908 22.3094 6.06231 22.1395 5.88563C22.0568 5.79178 21.9594 5.68539 21.8475 5.56645C21.7395 5.44403 21.6278 5.32132 21.5122 5.1983C21.4007 5.0718 21.2927 4.94939 21.1883 4.83106C21.0803 4.70865 20.9831 4.59848 20.8967 4.50055C20.8464 4.44342 20.7832 4.37579 20.7073 4.29765C20.6353 4.21604 20.5635 4.13066 20.4918 4.0415C20.4202 3.95234 20.358 3.86205 20.3054 3.77063C20.2491 3.67513 20.2153 3.58523 20.204 3.50093C20.2027 3.44398 20.2205 3.38477 20.2573 3.32331C20.2905 3.25777 20.3346 3.20068 20.3897 3.15207C20.4488 3.09998 20.5129 3.06157 20.5821 3.03683C20.6552 3.00861 20.7197 3.00245 20.7757 3.01834C20.8131 3.02893 20.8555 3.0532 20.903 3.09114C20.9504 3.12908 21.0013 3.17487 21.0557 3.22853C21.1103 3.27463 21.1646 3.32828 21.2186 3.38949C21.273 3.44314 21.3217 3.49445 21.3649 3.54341Z" fill="#FFA02F"/>
<path id="Vector_15" d="M19.9378 8.9944C20.09 8.98683 20.2612 8.9783 20.4514 8.96883C20.6413 8.95412 20.8395 8.94162 21.046 8.93134C21.2471 8.92132 21.4482 8.91131 21.6492 8.9013C21.8449 8.89156 22.0271 8.88511 22.1958 8.88197C22.2776 8.88315 22.3676 8.88655 22.466 8.89216C22.5589 8.89805 22.6469 8.91469 22.7299 8.94209C22.813 8.96949 22.8834 9.01591 22.9412 9.08136C22.9932 9.14184 23.0193 9.22727 23.0193 9.33764C23.0165 9.50071 22.949 9.62232 22.8168 9.70249C22.6844 9.77741 22.4961 9.8262 22.2521 9.84887C22.1271 9.85509 21.9832 9.86488 21.8205 9.87824C21.6574 9.88636 21.4918 9.89724 21.3236 9.91087C21.1552 9.91926 20.9921 9.92738 20.8345 9.93522C20.6715 9.94334 20.5248 9.95065 20.3943 9.95714C20.3183 9.96093 20.226 9.96815 20.1176 9.97881C20.0089 9.98422 19.8974 9.98715 19.783 9.98759C19.6686 9.98803 19.5593 9.98033 19.455 9.9645C19.3452 9.94894 19.2539 9.91933 19.1809 9.87566C19.1356 9.84113 19.1004 9.79032 19.0752 9.72325C19.0447 9.65644 19.0276 9.58634 19.0239 9.51294C19.02 9.4343 19.0299 9.36022 19.0537 9.29071C19.0772 9.21596 19.1126 9.16164 19.16 9.12774C19.1915 9.10515 19.2369 9.08712 19.2962 9.07366C19.3555 9.06019 19.423 9.04895 19.4988 9.03992C19.5689 9.02591 19.6448 9.01688 19.7263 9.01282C19.8021 9.00379 19.8726 8.99765 19.9378 8.9944Z" fill="#FFA02F"/>
<path id="Vector_16" d="M25.2876 11.3961C25.969 11.8551 26.8127 11.9534 27.8186 11.6912C28.4676 11.4945 28.9705 11.1994 29.3274 10.806C29.6844 10.3798 29.8953 9.92081 29.9602 9.42904C30.0575 8.93728 29.9764 8.42912 29.7168 7.90457C29.4897 7.38002 29.1003 6.92103 28.5487 6.52762C27.9646 6.10142 27.3805 5.87193 26.7965 5.83915C26.2124 5.80636 25.6932 5.9375 25.2389 6.23256C24.7847 6.49484 24.444 6.88825 24.2168 7.4128C23.9897 7.93735 23.941 8.54386 24.0708 9.23233C24.233 10.1831 24.6386 10.9043 25.2876 11.3961Z" fill="#FFA02F"/>
<path id="Vector_17" d="M13.3834 17.2147C13.3834 17.0227 13.3834 16.8067 13.3834 16.5667C13.3834 16.3107 13.3914 16.0547 13.4074 15.7987C13.4234 15.5267 13.4474 15.2707 13.4794 15.0307C13.5274 14.7747 13.5914 14.5507 13.6714 14.3587C13.7994 14.0707 13.9994 13.8787 14.2714 13.7827C14.5434 13.6707 14.8394 13.6227 15.1594 13.6387C15.4954 13.6387 15.7594 13.6947 15.9514 13.8067C16.1434 13.9187 16.2874 14.0707 16.3834 14.2627C16.4794 14.4387 16.5354 14.6467 16.5514 14.8867C16.5834 15.1107 16.5994 15.3507 16.5994 15.6067C16.7434 15.3507 16.9354 15.1427 17.1754 14.9827C17.4314 14.8227 17.6874 14.6947 17.9434 14.5987C18.1994 14.5027 18.4314 14.4387 18.6394 14.4067C18.8474 14.3587 18.9674 14.3347 18.9994 14.3347C19.3994 14.3027 19.7594 14.2947 20.0794 14.3107C20.4154 14.3267 20.7834 14.3987 21.1834 14.5267C21.4394 14.6227 21.7034 14.7587 21.9754 14.9347C22.2474 15.0947 22.4874 15.2867 22.6954 15.5107C22.9034 15.7347 23.0394 15.9827 23.1034 16.2547C23.1834 16.5107 23.1514 16.7827 23.0074 17.0707C22.7834 17.4707 22.5354 17.6707 22.2634 17.6707C21.9914 17.6547 21.6954 17.6067 21.3754 17.5267C21.1994 17.4947 20.9914 17.4227 20.7514 17.3107C20.5114 17.1987 20.3034 17.1267 20.1274 17.0947C19.5834 17.0147 19.1034 17.0547 18.6874 17.2147C18.2714 17.3747 17.9114 17.5667 17.6074 17.7907C17.2554 18.0627 16.9514 18.3747 16.6954 18.7267V22.1827C16.6954 22.6147 16.6874 23.0627 16.6714 23.5267C16.6714 23.9907 16.6074 24.4147 16.4794 24.7987C16.3674 25.1667 16.1674 25.4707 15.8794 25.7107C15.6074 25.9347 15.2074 26.0307 14.6794 25.9987C14.3914 25.9827 14.1354 25.8467 13.9114 25.5907C13.6874 25.3187 13.5514 25.0547 13.5034 24.7987C13.4714 24.5587 13.4474 24.2707 13.4314 23.9347C13.4154 23.5987 13.3994 23.2467 13.3834 22.8787C13.3834 22.5107 13.3834 22.1427 13.3834 21.7747C13.3834 21.3907 13.3834 21.0387 13.3834 20.7187V17.2147Z" fill="black"/>
<path id="Vector_18" d="M9.456 16.8548C9.92 17.1588 10.312 17.5188 10.632 17.9348C10.968 18.3348 11.232 18.8308 11.424 19.4228C11.632 20.0788 11.736 20.7428 11.736 21.4148C11.752 22.0708 11.632 22.6868 11.376 23.2628C11.136 23.8228 10.744 24.3188 10.2 24.7508C9.672 25.1668 8.976 25.4628 8.112 25.6388C7.648 25.7508 7.104 25.8388 6.48 25.9028C5.856 25.9668 5.296 25.9988 4.8 25.9988C4.176 26.0148 3.528 26.0148 2.856 25.9988C2.2 25.9988 1.56 25.9348 0.936 25.8068C0.664 25.7268 0.464 25.5908 0.336 25.3988C0.224 25.1908 0.144 24.9588 0.0960001 24.7028C0.0320001 24.5588 0 24.4148 0 24.2708V10.6388C0 10.1908 0.0880001 9.84681 0.264 9.60681C0.456 9.35081 0.704 9.16681 1.008 9.05481C1.312 8.92681 1.656 8.85481 2.04 8.83881C2.424 8.80681 2.824 8.79081 3.24 8.79081C3.56 8.79081 3.88 8.79081 4.2 8.79081C4.536 8.77481 4.872 8.77481 5.208 8.79081C5.736 8.80681 6.28 8.85481 6.84 8.93481C7.416 8.99881 7.96 9.12681 8.472 9.31881C8.712 9.39881 8.968 9.51081 9.24 9.65481C9.512 9.78281 9.728 9.94281 9.888 10.1348C10.4 10.5988 10.776 11.1428 11.016 11.7668C11.272 12.3748 11.384 12.9988 11.352 13.6388C11.32 14.2628 11.144 14.8628 10.824 15.4388C10.52 16.0148 10.064 16.4868 9.456 16.8548ZM5.256 23.2148C5.752 23.1828 6.256 23.1268 6.768 23.0468C7.28 22.9668 7.632 22.8148 7.824 22.5908C8.032 22.3348 8.176 22.0388 8.256 21.7028C8.352 21.3508 8.376 20.9988 8.328 20.6468C8.296 20.2788 8.192 19.9348 8.016 19.6148C7.856 19.2788 7.64 19.0148 7.368 18.8228C7 18.5348 6.576 18.3508 6.096 18.2708C5.616 18.1748 5.144 18.1268 4.68 18.1268C4.456 18.1268 4.248 18.1348 4.056 18.1508C3.88 18.1508 3.72 18.1748 3.576 18.2228C3.448 18.2548 3.352 18.3268 3.288 18.4388C3.224 18.5508 3.192 18.7188 3.192 18.9428C3.224 19.3588 3.224 19.7748 3.192 20.1908C3.16 20.6068 3.144 21.0068 3.144 21.3908C3.144 21.6148 3.136 21.8628 3.12 22.1348C3.12 22.3908 3.208 22.6068 3.384 22.7828C3.56 22.9588 3.816 23.0788 4.152 23.1428C4.488 23.2068 4.856 23.2308 5.256 23.2148ZM5.736 11.6948C5.24 11.6788 4.824 11.6708 4.488 11.6708C4.168 11.6548 3.912 11.6788 3.72 11.7428C3.544 11.7908 3.416 11.9108 3.336 12.1028C3.272 12.2788 3.248 12.5508 3.264 12.9188C3.264 13.2228 3.256 13.5268 3.24 13.8308C3.24 14.1188 3.24 14.4068 3.24 14.6948C3.24 15.0148 3.344 15.2548 3.552 15.4148C3.76 15.5588 4.016 15.6468 4.32 15.6788C4.64 15.7108 4.968 15.7108 5.304 15.6788C5.656 15.6468 5.96 15.6068 6.216 15.5588C6.792 15.4628 7.232 15.2708 7.536 14.9828C7.856 14.6788 8.04 14.2388 8.088 13.6628C8.152 12.9428 7.96 12.4468 7.512 12.1748C7.08 11.8868 6.488 11.7268 5.736 11.6948Z" fill="black"/>
</g>
</svg>
