<svg width="36" height="36" viewBox="0 0 36 36" fill="none" xmlns="http://www.w3.org/2000/svg">
<path d="M20.3864 18L27.0661 11.3203C27.3831 11.0039 27.5614 10.5744 27.5618 10.1265C27.5622 9.67856 27.3847 9.24881 27.0682 8.93179C26.7517 8.61478 26.3223 8.43646 25.8744 8.43606C25.4264 8.43567 24.9967 8.61323 24.6797 8.92969L18 15.6094L11.3203 8.92969C11.0033 8.61267 10.5733 8.43457 10.125 8.43457C9.67667 8.43457 9.2467 8.61267 8.92969 8.92969C8.61267 9.2467 8.43457 9.67667 8.43457 10.125C8.43457 10.5733 8.61267 11.0033 8.92969 11.3203L15.6094 18L8.92969 24.6797C8.61267 24.9967 8.43457 25.4267 8.43457 25.875C8.43457 26.3233 8.61267 26.7533 8.92969 27.0703C9.2467 27.3873 9.67667 27.5654 10.125 27.5654C10.5733 27.5654 11.0033 27.3873 11.3203 27.0703L18 20.3906L24.6797 27.0703C24.9967 27.3873 25.4267 27.5654 25.875 27.5654C26.3233 27.5654 26.7533 27.3873 27.0703 27.0703C27.3873 26.7533 27.5654 26.3233 27.5654 25.875C27.5654 25.4267 27.3873 24.9967 27.0703 24.6797L20.3864 18Z" fill="white"/>
</svg>
