<svg width="16" height="12" viewBox="0 0 16 12" fill="none" xmlns="http://www.w3.org/2000/svg">
<path d="M10.4687 6C9.82621 6 9.20496 5.71313 8.71871 5.1925C8.2459 4.68469 7.95715 4.0075 7.90621 3.28625C7.85184 2.51688 8.08653 1.80938 8.56684 1.29375C9.04715 0.778125 9.71871 0.5 10.4687 0.5C11.2134 0.5 11.8868 0.783125 12.3656 1.2975C12.849 1.81687 13.0843 2.52312 13.03 3.28594C12.9778 4.00812 12.6893 4.685 12.2175 5.19219C11.7325 5.71312 11.1115 6 10.4687 6ZM14.5884 11.5H6.34934C6.21687 11.5007 6.08601 11.471 5.96682 11.4132C5.84763 11.3554 5.7433 11.271 5.66184 11.1666C5.57543 11.0533 5.51576 10.922 5.4873 10.7824C5.45883 10.6429 5.46231 10.4987 5.49746 10.3606C5.76059 9.30406 6.41246 8.42781 7.38246 7.82687C8.2434 7.29375 9.33934 7 10.4687 7C11.6203 7 12.6875 7.28125 13.5534 7.81406C14.5256 8.41187 15.1784 9.29313 15.4403 10.3625C15.475 10.5006 15.4781 10.6448 15.4493 10.7843C15.4205 10.9238 15.3606 11.055 15.274 11.1681C15.1927 11.2721 15.0886 11.3561 14.9697 11.4136C14.8509 11.4711 14.7204 11.5007 14.5884 11.5ZM4.56246 6.125C3.46278 6.125 2.4959 5.1025 2.40621 3.84594C2.36184 3.20219 2.56246 2.60687 2.96871 2.17031C3.37059 1.73812 3.93746 1.5 4.56246 1.5C5.18746 1.5 5.74996 1.73938 6.15403 2.17406C6.5634 2.61406 6.7634 3.20812 6.71653 3.84656C6.62684 5.10281 5.66028 6.125 4.56246 6.125ZM6.61434 7.10781C6.06465 6.83906 5.35121 6.70469 4.56278 6.70469C3.64215 6.70469 2.74809 6.94469 2.04496 7.38031C1.24778 7.875 0.711527 8.59531 0.494964 9.465C0.463272 9.59009 0.460275 9.72073 0.486196 9.84715C0.512117 9.97356 0.566287 10.0925 0.644652 10.195C0.719011 10.2905 0.814272 10.3676 0.92311 10.4205C1.03195 10.4733 1.15146 10.5006 1.27246 10.5H4.74121C4.79976 10.5 4.85645 10.4794 4.90139 10.4419C4.94634 10.4044 4.97669 10.3523 4.98715 10.2947C4.99059 10.275 4.99496 10.2553 4.99996 10.2359C5.26496 9.17156 5.8859 8.27219 6.8034 7.61656C6.83715 7.59224 6.86429 7.55988 6.88237 7.52241C6.90045 7.48495 6.90889 7.44356 6.90694 7.40201C6.90498 7.36046 6.89269 7.32005 6.87117 7.28445C6.84966 7.24884 6.81959 7.21917 6.78371 7.19812C6.73465 7.16937 6.6784 7.13906 6.61434 7.10781Z" fill="#3B72FF"/>
</svg>
