<svg width="20" height="20" viewBox="0 0 20 20" fill="none" xmlns="http://www.w3.org/2000/svg">
<path id="Vector" d="M19.3645 17.7749L14.954 13.3644C16.0159 11.9508 16.5891 10.2302 16.5872 8.46222C16.5872 3.94628 12.9131 0.272217 8.39715 0.272217C3.88122 0.272217 0.207153 3.94628 0.207153 8.46222C0.207153 12.9782 3.88122 16.6522 8.39715 16.6522C10.1651 16.6542 11.8858 16.0809 13.2993 15.0191L17.7098 19.4296C17.9331 19.6291 18.2243 19.7357 18.5236 19.7273C18.8229 19.7189 19.1077 19.5963 19.3195 19.3845C19.5312 19.1728 19.6538 18.888 19.6622 18.5887C19.6706 18.2893 19.5641 17.9981 19.3645 17.7749ZM2.54715 8.46222C2.54715 7.3052 2.89025 6.17416 3.53306 5.21213C4.17586 4.2501 5.08951 3.50029 6.15846 3.05752C7.2274 2.61475 8.40364 2.4989 9.53843 2.72462C10.6732 2.95035 11.7156 3.5075 12.5337 4.32564C13.3519 5.14378 13.909 6.18615 14.1347 7.32094C14.3605 8.45573 14.2446 9.63197 13.8019 10.7009C13.3591 11.7699 12.6093 12.6835 11.6472 13.3263C10.6852 13.9691 9.55417 14.3122 8.39715 14.3122C6.84621 14.3104 5.35932 13.6934 4.26263 12.5967C3.16595 11.5001 2.54901 10.0132 2.54715 8.46222Z" fill="#9DABCE"/>
</svg>
