<svg width="17" height="16" viewBox="0 0 17 16" fill="none" xmlns="http://www.w3.org/2000/svg">
<g clip-path="url(#clip0_99_7036)">
<path d="M13.2799 15C13.1747 15.0004 13.072 14.9676 12.9865 14.9062L8.96744 11.9925L4.94837 14.9062C4.86251 14.9685 4.75906 15.0019 4.65299 15.0015C4.54692 15.0011 4.44372 14.967 4.35831 14.9041C4.2729 14.8412 4.20971 14.7528 4.17787 14.6516C4.14603 14.5504 4.14719 14.4417 4.18119 14.3412L5.74869 9.69843L1.68619 6.91249C1.59819 6.85221 1.53177 6.76537 1.49665 6.66466C1.46152 6.56395 1.45951 6.45464 1.49093 6.35271C1.52235 6.25078 1.58554 6.16157 1.67127 6.09811C1.757 6.03465 1.86077 6.00027 1.96744 5.99999H6.97931L8.49181 1.3453C8.52439 1.24481 8.58797 1.15722 8.67342 1.0951C8.75887 1.03297 8.86179 0.999512 8.96744 0.999512C9.07308 0.999512 9.17601 1.03297 9.26146 1.0951C9.3469 1.15722 9.41048 1.24481 9.44306 1.3453L10.9556 6.00155H15.9674C16.0742 6.0015 16.1782 6.03564 16.2642 6.09898C16.3502 6.16232 16.4137 6.25152 16.4453 6.35353C16.4769 6.45554 16.475 6.56499 16.4399 6.66585C16.4048 6.76672 16.3384 6.8537 16.2502 6.91405L12.1862 9.69843L13.7528 14.34C13.7781 14.4151 13.7853 14.4952 13.7736 14.5737C13.7619 14.6521 13.7317 14.7267 13.6855 14.7912C13.6393 14.8557 13.5784 14.9082 13.5079 14.9445C13.4374 14.9808 13.3593 14.9998 13.2799 15Z" fill="#FFA02F"/>
</g>
<defs>
<clipPath id="clip0_99_7036">
<rect width="16" height="16" fill="white" transform="translate(0.96875)"/>
</clipPath>
</defs>
</svg>
